<?xml version="1.0" standalone="no"?>
<!DOCTYPE svg PUBLIC "-//W3C//DTD SVG 20010904//EN"
 "http://www.w3.org/TR/2001/REC-SVG-20010904/DTD/svg10.dtd">
<svg version="1.0" xmlns="http://www.w3.org/2000/svg"
 width="40.000000pt" height="45.000000pt" viewBox="0 0 40.000000 45.000000"
 preserveAspectRatio="xMidYMid meet">

<g transform="translate(0.000000,45.000000) scale(0.100000,-0.100000)"
fill="#000000" stroke="none">
<path d="M148 424 c-17 -9 -32 -28 -39 -53 -9 -29 -19 -40 -45 -50 -37 -13
-48 -38 -48 -106 0 -63 12 -94 45 -114 17 -10 38 -34 47 -52 12 -25 25 -35 45
-37 35 -4 54 11 66 52 9 29 9 29 10 5 1 -33 18 -49 53 -49 41 0 59 35 66 132
3 54 11 93 24 113 10 16 18 36 18 43 0 7 -21 35 -47 63 -64 66 -135 86 -195
53z m136 -16 c19 -11 16 -13 -29 -20 -91 -13 -122 -82 -65 -140 29 -29 34 -30
92 -26 l61 4 -6 -73 c-6 -79 -26 -123 -55 -123 -39 0 -55 43 -24 66 16 13 16
13 -3 14 -29 0 -45 -13 -53 -45 -16 -59 -67 -59 -85 1 -4 16 -9 81 -9 144 -1
131 13 187 52 208 27 14 89 9 124 -10z m41 -43 c61 -25 66 -83 11 -116 -80
-49 -187 7 -156 81 19 46 83 62 145 35z m-235 -160 c0 -102 -1 -105 -20 -95
-30 16 -40 43 -40 112 0 66 10 88 42 88 16 0 18 -11 18 -105z"/>
</g>
</svg>
